<svg width="815" height="128" viewBox="0 0 815 128" fill="none" xmlns="http://www.w3.org/2000/svg">
<path fill-rule="evenodd" clip-rule="evenodd" d="M406.992 127.493H372.746V122.493H403.323L360.659 14.0248L316.653 125.908L312 124.078L358.333 6.27966L360.659 0.364685L362.986 6.27966L409.319 124.078L410.662 127.493H406.992ZM322.384 123.286C323.497 123.286 324.399 124.05 324.399 124.993C324.399 125.936 323.497 126.7 322.384 126.7C321.272 126.7 320.37 125.936 320.37 124.993C320.37 124.05 321.272 123.286 322.384 123.286ZM332.456 124.993C332.456 124.05 331.554 123.286 330.442 123.286C329.329 123.286 328.427 124.05 328.427 124.993C328.427 125.936 329.329 126.7 330.442 126.7C331.554 126.7 332.456 125.936 332.456 124.993ZM338.501 123.286C339.614 123.286 340.516 124.05 340.516 124.993C340.516 125.936 339.614 126.7 338.501 126.7C337.389 126.7 336.487 125.936 336.487 124.993C336.487 124.05 337.389 123.286 338.501 123.286ZM348.574 124.993C348.574 124.05 347.672 123.286 346.559 123.286C345.447 123.286 344.545 124.05 344.545 124.993C344.545 125.936 345.447 126.7 346.559 126.7C347.672 126.7 348.574 125.936 348.574 124.993ZM354.617 123.286C355.73 123.286 356.632 124.05 356.632 124.993C356.632 125.936 355.73 126.7 354.617 126.7C353.505 126.7 352.603 125.936 352.603 124.993C352.603 124.05 353.505 123.286 354.617 123.286ZM364.69 124.993C364.69 124.05 363.788 123.286 362.675 123.286C361.563 123.286 360.661 124.05 360.661 124.993C360.661 125.936 361.563 126.7 362.675 126.7C363.788 126.7 364.69 125.936 364.69 124.993ZM370.731 123.286C371.844 123.286 372.746 124.05 372.746 124.993C372.746 125.936 371.844 126.7 370.731 126.7C369.619 126.7 368.717 125.936 368.717 124.993C368.717 124.05 369.619 123.286 370.731 123.286ZM343.613 18.7791L321.454 75.1172L323.315 75.8493L345.474 19.5111L343.613 18.7791ZM409.939 102.433L369.649 -9.15527e-05L367.788 0.731972L408.078 103.165L409.939 102.433Z" fill="white"/>
<path fill-rule="evenodd" clip-rule="evenodd" d="M16.4052 14.2021H0V126.988H51.2662V112.633H16.4052V14.2021ZM77.9242 14.2022H63.5696V126.988H77.9242V14.2022ZM151.768 14.2022V28.8225H125.11C111.781 30.9111 104.603 39.2656 104.603 63.2848C104.603 63.2848 108.684 106.102 145.616 108.19V37.177H159.971V126.988H145.616C145.616 126.988 89.2237 109.234 90.2488 59.1075C90.2488 59.1075 88.1981 21.5123 125.11 14.2022H151.768ZM172.254 14.2022H186.608V35.0884H219.419V14.2022H233.773V126.988H219.419V62.2405H186.608V126.988H172.254V14.2022ZM186.607 45.5317V53.8862H219.418V45.5317H186.607ZM246.076 14.2022V30.9111H272.735V126.988H285.038V30.9111H311.697V14.2022H246.076Z" fill="white"/>
<path fill-rule="evenodd" clip-rule="evenodd" d="M447.042 126.988H432.688V14.2021H469.599C469.599 14.2021 494.207 18.4987 494.207 36.7593C494.207 55.0198 469.599 60.3905 469.599 60.3905L502.409 124.839V126.988H488.055L453.194 60.3905H447.042V126.988ZM444.99 45.3529V26.0182C444.99 26.0182 477.801 24.1851 477.801 35.6855C477.801 47.1859 444.99 45.3529 444.99 45.3529ZM560.853 120.488C588.408 120.488 610.746 98.15 610.746 70.595C610.746 43.0399 588.408 20.7022 560.853 20.7022C533.298 20.7022 510.96 43.0399 510.96 70.595C510.96 98.15 533.298 120.488 560.853 120.488ZM560.853 126.988C591.998 126.988 617.246 101.74 617.246 70.595C617.246 39.4501 591.998 14.2022 560.853 14.2022C529.708 14.2022 504.46 39.4501 504.46 70.595C504.46 101.74 529.708 126.988 560.853 126.988ZM560.252 107.18C580.682 107.18 597.243 90.6187 597.243 70.189C597.243 49.7593 580.682 33.1977 560.252 33.1977C539.823 33.1977 523.261 49.7593 523.261 70.189C523.261 90.6187 539.823 107.18 560.252 107.18ZM560.252 110.18C582.339 110.18 600.243 92.2755 600.243 70.189C600.243 48.1024 582.339 30.1977 560.252 30.1977C538.166 30.1977 520.261 48.1024 520.261 70.189C520.261 92.2755 538.166 110.18 560.252 110.18ZM729.684 70.595C729.684 98.15 707.346 120.488 679.791 120.488C652.236 120.488 629.899 98.15 629.899 70.595C629.899 43.0399 652.236 20.7022 679.791 20.7022C707.346 20.7022 729.684 43.0399 729.684 70.595ZM736.184 70.595C736.184 101.74 710.936 126.988 679.791 126.988C648.647 126.988 623.399 101.74 623.399 70.595C623.399 39.4501 648.647 14.2022 679.791 14.2022C710.936 14.2022 736.184 39.4501 736.184 70.595ZM716.844 70.189C716.844 90.6187 700.282 107.18 679.853 107.18C659.423 107.18 642.861 90.6187 642.861 70.189C642.861 49.7593 659.423 33.1977 679.853 33.1977C700.282 33.1977 716.844 49.7593 716.844 70.189ZM719.844 70.189C719.844 92.2755 701.939 110.18 679.853 110.18C657.766 110.18 639.861 92.2755 639.861 70.189C639.861 48.1024 657.766 30.1977 679.853 30.1977C701.939 30.1977 719.844 48.1024 719.844 70.189ZM756.691 126.988H742.336V14.2022H754.64L779.248 45.1629L803.856 14.2022H814.109V126.988H799.754V40.74H797.704L779.248 65.0662L758.742 40.74H756.691V126.988ZM775.147 98.2386V87.1812H785.4V98.2386H775.147ZM775.147 126.988V115.93H785.4V126.988H775.147Z" fill="white"/>
</svg>
