<svg width="1203" height="376" viewBox="0 0 1203 376" fill="none" xmlns="http://www.w3.org/2000/svg">
<path fill-rule="evenodd" clip-rule="evenodd" d="M259.817 60.3064H269.195V57.3064H261.898L272.505 25.4868L283.769 59.2807L286.615 58.332L273.928 20.2691L272.505 16L271.082 20.2691L258.394 58.332L257.736 60.3064H259.817ZM282.986 58.2548C282.681 58.2548 282.434 58.5017 282.434 58.8064C282.434 59.111 282.681 59.358 282.986 59.358C283.29 59.358 283.537 59.111 283.537 58.8064C283.537 58.5017 283.29 58.2548 282.986 58.2548ZM280.228 58.8064C280.228 58.5017 280.475 58.2548 280.779 58.2548C281.084 58.2548 281.331 58.5017 281.331 58.8064C281.331 59.111 281.084 59.358 280.779 59.358C280.475 59.358 280.228 59.111 280.228 58.8064ZM278.573 58.2548C278.268 58.2548 278.021 58.5017 278.021 58.8064C278.021 59.111 278.268 59.358 278.573 59.358C278.877 59.358 279.124 59.111 279.124 58.8064C279.124 58.5017 278.877 58.2548 278.573 58.2548ZM275.814 58.8064C275.814 58.5017 276.061 58.2548 276.366 58.2548C276.671 58.2548 276.918 58.5017 276.918 58.8064C276.918 59.111 276.671 59.358 276.366 59.358C276.061 59.358 275.814 59.111 275.814 58.8064ZM274.159 58.2548C273.855 58.2548 273.608 58.5017 273.608 58.8064C273.608 59.111 273.855 59.358 274.159 59.358C274.464 59.358 274.711 59.111 274.711 58.8064C274.711 58.5017 274.464 58.2548 274.159 58.2548ZM271.401 58.8064C271.401 58.5017 271.648 58.2548 271.953 58.2548C272.258 58.2548 272.505 58.5017 272.505 58.8064C272.505 59.111 272.258 59.358 271.953 59.358C271.648 59.358 271.401 59.111 271.401 58.8064ZM269.747 58.2548C269.442 58.2548 269.195 58.5017 269.195 58.8064C269.195 59.111 269.442 59.358 269.747 59.358C270.051 59.358 270.298 59.111 270.298 58.8064C270.298 58.5017 270.051 58.2548 269.747 58.2548ZM277.155 24.5258L283.223 42.7298L282.748 42.888L276.68 24.6839L277.155 24.5258ZM259.028 51.556L270.061 18.4578L270.535 18.6159L259.502 51.7142L259.028 51.556Z" fill="url(#paint0_linear_497_3314)"/>
<path fill-rule="evenodd" clip-rule="evenodd" d="M179.413 23.8791H175V54.2191H188.791V50.3577H179.413V23.8791ZM195.962 23.8791H192.101V54.2192H195.962V23.8791ZM215.827 23.8791V27.8121H208.655C205.07 28.3739 203.139 30.6213 203.139 37.0826C203.139 37.0826 204.237 48.6006 214.172 49.1625V30.0595H218.033V54.2192H214.172C214.172 54.2192 199.002 49.4434 199.277 35.9589C199.277 35.9589 198.726 25.8456 208.655 23.8791H215.827ZM221.338 23.8791H225.199V29.4976H234.025V23.8791H237.887V54.2192H234.025V36.8017H225.199V54.2192H221.338V23.8791ZM225.199 32.3069V34.5543H234.025V32.3069H225.199ZM241.197 23.8791V28.3739H248.368V54.2192H251.678V28.3739H258.849V23.8791H241.197Z" fill="black"/>
<path fill-rule="evenodd" clip-rule="evenodd" d="M295.256 54.2191H291.395V23.8791H301.324C301.324 23.8791 307.944 25.0349 307.944 29.9471C307.944 34.8593 301.324 36.3041 301.324 36.3041L310.15 53.6412V54.2191H306.289L296.911 36.3041H295.256V54.2191ZM294.704 32.2587V27.0576C294.704 27.0576 303.53 26.5645 303.53 29.6582C303.53 32.7518 294.704 32.2587 294.704 32.2587ZM325.872 47.7191C330.66 47.7191 334.542 43.8374 334.542 39.0491C334.542 34.2608 330.66 30.3791 325.872 30.3791C321.084 30.3791 317.202 34.2608 317.202 39.0491C317.202 43.8374 321.084 47.7191 325.872 47.7191ZM325.872 54.2191C334.25 54.2191 341.042 47.4273 341.042 39.0491C341.042 30.6709 334.25 23.8791 325.872 23.8791C317.494 23.8791 310.702 30.6709 310.702 39.0491C310.702 47.4273 317.494 54.2191 325.872 54.2191ZM329.664 39.0491C329.664 41.1437 327.966 42.8416 325.872 42.8416C323.777 42.8416 322.079 41.1437 322.079 39.0491C322.079 36.9546 323.777 35.2566 325.872 35.2566C327.966 35.2566 329.664 36.9546 329.664 39.0491ZM366.537 39.0491C366.537 43.8374 362.655 47.7191 357.867 47.7191C353.078 47.7191 349.197 43.8374 349.197 39.0491C349.197 34.2608 353.078 30.3791 357.867 30.3791C362.655 30.3791 366.537 34.2608 366.537 39.0491ZM373.037 39.0491C373.037 47.4273 366.245 54.2191 357.867 54.2191C349.489 54.2191 342.697 47.4273 342.697 39.0491C342.697 30.6709 349.489 23.8791 357.867 23.8791C366.245 23.8791 373.037 30.6709 373.037 39.0491ZM357.867 42.8416C359.961 42.8416 361.659 41.1437 361.659 39.0491C361.659 36.9546 359.961 35.2566 357.867 35.2566C355.772 35.2566 354.074 36.9546 354.074 39.0491C354.074 41.1437 355.772 42.8416 357.867 42.8416ZM378.553 54.2191H374.692V23.8791H378.002L384.621 32.2077L391.241 23.8791H393.999V54.2191H390.138V31.0179H389.586L384.621 37.5619L379.105 31.0179H378.553V54.2191ZM383.518 46.4854V43.5109H386.276V46.4854H383.518ZM383.518 54.2191V51.2446H386.276V54.2191H383.518Z" fill="black"/>
<path fill-rule="evenodd" clip-rule="evenodd" d="M823 19.2088V23.0602H840.056V26.6365H823V34.0643L826.301 37.3655H841.707L845.008 34.0643V29.6627L842.807 26.6365L845.008 24.1606V22.51L841.707 19.2088H823ZM827.677 29.6626V33.5141H840.056V29.6626H827.677ZM848.859 37.3655H847.759V22.6132L850.51 19.2088H865.916L868.667 22.6132V37.3655H867.566L864.265 34.5285V29.9893H856.012V26.0176H864.265V22.6132H852.161V34.5285L848.859 37.3655ZM871.418 19.2088L874.169 22.6132H879.12V33.3937L882.422 37.3655H884.072V22.6132H888.474L891.225 19.2088H871.418ZM896.727 22.6132L893.976 19.2088H913.783L911.032 22.6132H906.631V37.3655H904.98L901.679 33.3937V22.6132H896.727ZM916.534 19.2088H917.634L920.936 22.6132V33.9611H933.04L936.341 37.3655H919.835L916.534 33.9611V19.2088ZM942.394 19.2088L939.092 22.6132H956.149L959.45 19.2088H942.394ZM939.092 26.0176H952.847L949.546 29.4219H943.494V33.3937H956.699L960 37.3655H941.843L939.092 33.9611V26.0176ZM842.807 43.5208L840.056 40.1165H858.763L862.064 43.5208V48.06L858.213 50.897H856.012L863.165 58.2731H858.213L850.51 50.897H845.008V58.2731H842.807L840.056 54.8687V50.897L843.908 47.4926H857.112V43.5208H842.807ZM865.916 43.4177L869.217 40.1165H885.173L888.474 43.4177V54.9719L885.173 58.2731H869.217L865.916 54.9719V43.4177ZM870.317 43.4177V54.4217H883.522V43.4177H870.317ZM894.526 40.1165L891.225 43.4177V54.9719L894.526 58.2731H910.482L913.783 54.9719V43.4177L910.482 40.1165H894.526ZM895.626 54.4217V43.4177H908.831V54.4217H895.626ZM919.285 58.2731L916.534 55.4361V40.1165H921.486L928.914 53.8715H930.289L937.992 40.1165H942.944V55.4361L940.193 58.2731H938.542V48.06H937.992L931.39 58.2731H927.538L921.486 47.4926H920.936V58.2731H919.285Z" fill="black"/>
<path fill-rule="evenodd" clip-rule="evenodd" d="M525.098 20.2156H533.36V33.6926H541.623C541.623 33.6926 543.754 33.1767 544.377 32.8503C545.073 32.4854 545.754 32.008 545.754 32.008L520.508 0H541.623C541.623 0 561.36 2.10579 561.819 20.2156C562.278 38.3253 541.623 40.4311 541.623 40.4311H525.098V20.2156ZM536.114 6.73852L552.638 26.9541C552.638 26.9541 555.109 18.702 552.638 14.3193C551.008 11.427 549.324 9.98892 546.212 8.42315C542.698 6.65478 536.114 6.73852 536.114 6.73852ZM571.711 40.4311H561.818L583.401 0H585.2L605.883 40.4311H584.3V33.8301H593.293L584.3 16.5025L571.711 40.4311ZM617.817 40.4311H609.555V24.4271H621.489L605.883 0H626.998C626.998 0 638.014 0.842315 641.227 11.7924C644.44 22.7425 634.342 28.6387 634.342 28.6387L642.604 40.4311H632.506L626.08 31.1657H617.817V40.4311ZM629.752 22.7425L619.653 7.58082H626.079C626.079 7.58082 631.129 7.58082 633.424 13.477C635.719 19.3732 629.752 22.7425 629.752 22.7425ZM656.961 0H649.03V39.8806L644.112 31.2928V46.3273V86.7584H652.112V61.3618L658.87 73.1633L662.398 79.3248L665.84 73.1145L672.111 61.7975V86.7584H680.111V46.3273V38.8139H682.519L680.111 35.6304V30.8571L678.585 33.6118L667.537 19.0026L682.519 0H672.825L656.961 20.2156V0ZM675.702 38.8139H672.825L662.249 25.0673L649.219 40.2111L651.583 44.3396L662.284 63.0265L672.613 44.3885L675.702 38.8139ZM526.016 84.2315H534.278V74.966H542.541L548.967 84.2315H559.065L550.803 72.4391C550.803 72.4391 560.901 66.5429 557.688 55.5928C554.475 44.6427 543.459 43.8004 543.459 43.8004H522.344L537.95 68.2275H526.016V84.2315ZM536.114 51.3812L546.212 66.5429C546.212 66.5429 552.179 63.1736 549.884 57.2774C547.589 51.3812 542.54 51.3812 542.54 51.3812H536.114ZM586.519 77.0875C585.151 77.5176 583.643 77.7584 582.015 77.7584C574.073 77.7584 568.983 72.0236 568.983 66.5429C568.983 64.6472 569.592 62.721 570.717 61.0124L586.519 77.0875ZM593.107 72.3766L577.13 56.1241C578.598 55.6154 580.235 55.3273 582.015 55.3273C589.958 55.3273 595.048 61.0621 595.048 66.5429C595.048 68.5516 594.364 70.5945 593.107 72.3766ZM599.916 78.3307C595.917 83.4346 589.389 86.7584 582.015 86.7584C569.847 86.7584 559.983 77.7076 559.983 66.5429C559.983 55.3781 569.847 46.3273 582.015 46.3273C589.389 46.3273 595.917 49.6512 599.916 54.7551C603.916 49.6512 610.443 46.3273 617.817 46.3273C629.985 46.3273 639.85 55.3781 639.85 66.5429C639.85 77.7076 629.985 86.7584 617.817 86.7584C610.443 86.7584 603.916 83.4346 599.916 78.3307ZM617.817 77.7584C616.19 77.7584 614.682 77.5176 613.313 77.0874L629.115 61.0122C630.241 62.7209 630.85 64.6471 630.85 66.5429C630.85 72.0236 625.76 77.7584 617.817 77.7584ZM622.702 56.1241L606.726 72.3765C605.469 70.5944 604.785 68.5516 604.785 66.5429C604.785 61.0621 609.875 55.3273 617.817 55.3273C619.597 55.3273 621.234 55.6154 622.702 56.1241ZM513 85.9161V0.8423H517V85.9161H513ZM686.505 0.8423V85.9161H690.505V0.8423H686.505Z" fill="url(#paint1_linear_497_3314)"/>
<path fill-rule="evenodd" clip-rule="evenodd" d="M98.498 370.853V286.356C98.498 271.375 102.15 259.737 109.455 251.442C116.883 243.147 127.407 239 141.025 239C154.768 239 165.291 242.343 172.596 249.028C180.024 255.714 183.738 265.123 183.738 277.256C183.738 285.056 181.881 291.432 178.167 296.384C174.453 301.336 168.139 305.236 159.225 308.084V308.826C168.51 312.417 174.7 317.555 177.796 324.24C181.014 330.802 182.624 341.697 182.624 356.925V370.853H165.167V347.082C165.167 337.673 162.506 330.369 157.182 325.169C151.858 319.845 144.182 317.183 134.154 317.183H124.126V300.841H134.711C146.597 300.841 154.83 298.427 159.41 293.598C163.991 288.77 166.282 283.013 166.282 276.327C166.282 270.013 163.991 264.937 159.41 261.099C154.953 257.261 149.011 255.342 141.582 255.342C133.04 255.342 126.602 257.757 122.269 262.585C118.059 267.413 115.955 275.337 115.955 286.356V370.853H98.498ZM0 305.855C0.123806 285.18 5.81887 269.209 17.0852 257.942C28.4753 246.552 44.1367 240.857 64.0694 240.857H76.1405V257.199H61.8409C48.0985 257.199 37.5131 261.78 30.0848 270.942C22.7802 279.98 19.0042 291.617 18.7566 305.855C19.0042 320.093 22.7802 331.792 30.0848 340.954C37.5131 349.992 48.0985 354.511 61.8409 354.511H76.1405V370.853H64.0694C44.1367 370.853 28.4753 365.22 17.0852 353.954C5.81887 342.563 0.123806 326.531 0 305.855ZM205.135 370.853H279.047V354.511H222.592V311.798H265.491V295.455H222.592V274.285C222.592 262.894 229.401 257.199 243.02 257.199H279.047V240.857H245.434C238.253 240.857 232.187 241.414 227.235 242.528C222.282 243.643 217.825 246.057 213.864 249.771C208.045 255.342 205.135 262.709 205.135 271.87V370.853ZM315.04 370.853H298.512V289.141C298.512 275.77 302.783 264.38 311.326 254.971C319.992 245.562 331.135 240.857 344.753 240.857H387.281V370.853H369.824V257.199H344.753C335.715 257.199 328.473 259.861 323.025 265.185C317.702 270.509 315.04 278.989 315.04 290.627V306.412C321.973 299.108 331.878 295.455 344.753 295.455H361.653V311.798H344.753C337.573 311.798 331.692 312.664 327.111 314.398C322.654 316.131 318.63 319.102 315.04 323.312V370.853ZM404.997 240.857V257.199H437.124V370.853H454.581V257.199H486.709V240.857H404.997ZM521.851 370.853H504.394V240.857H521.851V370.853ZM557.661 240.857H539.09L591.436 375.496L641.229 240.857H622.659L590.16 324.426L557.661 240.857ZM729.702 370.853H655.79V354.511H712.246V311.798H669.347V295.455H712.246V274.285C712.246 262.894 705.437 257.199 691.818 257.199H655.79V240.857H689.404C696.584 240.857 702.651 241.414 707.603 242.528C712.555 243.643 717.012 246.057 720.974 249.771C726.793 255.342 729.702 262.709 729.702 271.87V370.853ZM1203 240.857H761.943V375.496L901.223 375.496H910.509L1203 375.496V240.857ZM923.104 349.406C927.832 351.263 932.98 352.282 938.367 352.282C961.444 352.282 980.152 333.575 980.152 310.498C980.152 295.064 971.784 281.585 959.338 274.349L923.104 349.406ZM951.721 270.893C947.528 269.479 943.037 268.713 938.367 268.713C915.29 268.713 896.583 287.421 896.583 310.498C896.583 325.204 904.18 338.136 915.664 345.582L951.721 270.893ZM829.63 352.282H813.014V268.713H871.17C871.17 268.713 880.701 276.051 883.632 282.641C887.447 291.22 888.609 298.505 883.632 306.518C880.392 311.734 871.17 316.467 871.17 316.467L891.94 352.282H875.324L852.477 316.467V306.518H867.016C876.155 300.549 876.155 290.6 867.016 284.631H829.63V352.282ZM1026.58 352.282C1049.66 352.282 1068.36 333.575 1068.36 310.498C1068.36 287.421 1049.66 268.713 1026.58 268.713C1003.5 268.713 984.794 287.421 984.794 310.498C984.794 333.575 1003.5 352.282 1026.58 352.282ZM1088.92 352.282H1073V268.713H1092.9L1112.8 318.855H1116.78L1136.68 268.713H1156.57V352.282H1140.65V297.962H1136.68L1116.78 352.282H1112.8L1092.9 297.962H1088.92V352.282Z" fill="black"/>
<defs>
<linearGradient id="paint0_linear_497_3314" x1="272.175" y1="60.3064" x2="272.175" y2="16" gradientUnits="userSpaceOnUse">
<stop/>
<stop offset="1" stop-color="white"/>
</linearGradient>
<linearGradient id="paint1_linear_497_3314" x1="601.752" y1="0" x2="601.752" y2="86.7584" gradientUnits="userSpaceOnUse">
<stop/>
<stop offset="1" stop-color="#630000"/>
</linearGradient>
</defs>
</svg>
