<svg width="483" height="261" viewBox="0 0 483 261" fill="none" xmlns="http://www.w3.org/2000/svg">
<path fill-rule="evenodd" clip-rule="evenodd" d="M29.874 60.8155H52.6798V101.359H75.4856C75.4856 101.359 81.3692 99.8071 83.0876 98.8252C85.0088 97.7274 86.8885 96.2912 86.8885 96.2912L17.2041 0H75.4856C75.4856 0 129.966 6.33495 131.233 60.8155C132.5 115.296 75.4856 121.631 75.4856 121.631H29.874V60.8155ZM60.2808 20.2719L105.892 81.0874C105.892 81.0874 112.712 56.2622 105.892 43.0777C101.392 34.3764 96.7441 30.0503 88.1545 25.3399C78.4536 20.02 60.2808 20.2719 60.2808 20.2719ZM158.538 121.631H131.233L190.807 0H195.772L252.864 121.631H193.29V101.773H218.112L193.29 49.6453L158.538 121.631ZM285.805 121.631H262.999V73.4854H295.941L252.863 0H311.145C311.145 0 341.553 2.53398 350.421 35.4757C359.29 68.4174 331.417 86.1553 331.417 86.1553L354.222 121.631H326.349L308.611 93.7572H285.805V121.631ZM318.748 68.4173L290.874 22.8057H308.612C308.612 22.8057 322.549 22.8057 328.884 40.5435C335.219 58.2814 318.748 68.4173 318.748 68.4173ZM393.855 0H371.961V121.631L408.45 75.4112L437.642 116.766H464.401L423.046 57.1666L464.401 0H437.642L393.855 60.8155V0ZM32.4084 253.398H55.2142V225.524H78.02L95.7579 253.398H123.632L100.826 217.922C100.826 217.922 128.7 200.184 119.831 167.243C110.962 134.301 80.554 131.767 80.554 131.767H22.2725L65.3501 205.252H32.4084V253.398ZM60.2808 154.573L88.1545 200.184C88.1545 200.184 104.625 190.048 98.2905 172.31C91.9555 154.573 78.0186 154.573 78.0186 154.573H60.2808ZM231.26 227.108C222.166 242.034 205.737 252 186.98 252C158.363 252 135.165 228.801 135.165 200.184C135.165 171.567 158.363 148.369 186.98 148.369C205.737 148.369 222.166 158.335 231.26 173.261C227.247 181.377 224.991 190.517 224.991 200.184C224.991 209.851 227.247 218.992 231.26 227.108ZM236.393 235.644C225.354 251 207.335 261 186.98 261C153.393 261 126.165 233.772 126.165 200.184C126.165 166.597 153.393 139.369 186.98 139.369C207.335 139.369 225.354 149.369 236.393 164.724C247.432 149.369 265.452 139.369 285.807 139.369C319.394 139.369 346.622 166.597 346.622 200.184C346.622 233.772 319.394 261 285.807 261C265.452 261 247.432 251 236.393 235.644ZM241.526 173.261C250.621 158.335 267.05 148.369 285.807 148.369C314.423 148.369 337.622 171.567 337.622 200.184C337.622 228.801 314.423 252 285.807 252C267.05 252 250.621 242.034 241.526 227.108C245.54 218.992 247.796 209.851 247.796 200.184C247.796 190.517 245.54 181.377 241.526 173.261ZM236.393 184.544C237.954 189.479 238.796 194.733 238.796 200.184C238.796 205.635 237.954 210.889 236.393 215.824C234.833 210.889 233.991 205.635 233.991 200.184C233.991 194.733 234.833 189.479 236.393 184.544ZM153.602 169.922L211.884 234.538L217.825 229.18L159.543 164.564L153.602 169.922ZM260.903 234.538L319.184 169.922L313.244 164.564L254.962 229.18L260.903 234.538ZM365.427 139.369L372.968 137.508L408.645 205.41L443.148 137.556L450.713 139.369V261H442.713V156.061L412.269 215.934L408.762 222.832L405.162 215.982L373.427 155.581V261H365.427V139.369ZM0 258.466V2.53394H4V258.466H0ZM478.922 2.53394V258.466H482.922V2.53394H478.922Z" fill="white"/>
</svg>
