<svg width="1090" height="397" viewBox="0 0 1090 397" fill="none" xmlns="http://www.w3.org/2000/svg">
<path fill-rule="evenodd" clip-rule="evenodd" d="M546.364 396.316H500.55V391.316H542.694L484.38 243.057L424.723 394.732L420.07 392.901L482.053 235.312L484.38 229.397L486.706 235.312L548.69 392.901L550.034 396.316H546.364ZM433.176 391.533C434.664 391.533 435.871 392.555 435.871 393.816C435.871 395.078 434.664 396.1 433.176 396.1C431.688 396.1 430.481 395.078 430.481 393.816C430.481 392.555 431.688 391.533 433.176 391.533ZM446.65 393.816C446.65 392.555 445.444 391.533 443.955 391.533C442.467 391.533 441.26 392.555 441.26 393.816C441.26 395.078 442.467 396.1 443.955 396.1C445.444 396.1 446.65 395.078 446.65 393.816ZM454.737 391.533C456.225 391.533 457.432 392.555 457.432 393.816C457.432 395.078 456.225 396.1 454.737 396.1C453.249 396.1 452.042 395.078 452.042 393.816C452.042 392.555 453.249 391.533 454.737 391.533ZM468.212 393.816C468.212 392.555 467.006 391.533 465.517 391.533C464.029 391.533 462.822 392.555 462.822 393.816C462.822 395.078 464.029 396.1 465.517 396.1C467.006 396.1 468.212 395.078 468.212 393.816ZM476.297 391.533C477.785 391.533 478.992 392.555 478.992 393.816C478.992 395.078 477.785 396.1 476.297 396.1C474.808 396.1 473.602 395.078 473.602 393.816C473.602 392.555 474.808 391.533 476.297 391.533ZM489.772 393.816C489.772 392.555 488.565 391.533 487.077 391.533C485.588 391.533 484.382 392.555 484.382 393.816C484.382 395.078 485.588 396.1 487.077 396.1C488.565 396.1 489.772 395.078 489.772 393.816ZM497.854 391.533C499.343 391.533 500.549 392.555 500.549 393.816C500.549 395.078 499.343 396.1 497.854 396.1C496.366 396.1 495.16 395.078 495.16 393.816C495.16 392.555 496.366 391.533 497.854 391.533ZM461.89 251.848L432.246 327.217L434.107 327.949L463.751 252.58L461.89 251.848ZM549.991 363.76L496.092 226.725L494.231 227.458L548.13 364.492L549.991 363.76Z" fill="url(#paint0_linear_497_2899)"/>
<path fill-rule="evenodd" clip-rule="evenodd" d="M21.9467 245.602H0V396.485H68.5835V377.282H21.9467V245.602ZM104.246 245.602H85.043V396.485H104.246V245.602ZM203.035 245.602V265.161H167.371C149.539 267.955 139.938 279.131 139.938 311.264C139.938 311.264 145.397 368.544 194.805 371.338V276.337H214.008V396.485H194.805C194.805 396.485 119.363 372.735 120.734 305.676C120.734 305.676 117.991 255.381 167.371 245.602H203.035ZM230.44 245.602H249.643V273.543H293.537V245.602H312.74V396.485H293.537V309.867H249.643V396.485H230.44V245.602ZM249.642 287.514V298.69H293.536V287.514H249.642ZM329.199 245.602V267.955H364.863V396.485H381.323V267.955H416.986V245.602H329.199Z" fill="black"/>
<path fill-rule="evenodd" clip-rule="evenodd" d="M598.049 396.485H578.845V245.602H628.226C628.226 245.602 661.146 251.35 661.146 275.778C661.146 300.207 628.226 307.392 628.226 307.392L672.119 393.611V396.485H652.916L606.279 307.392H598.049V396.485ZM595.304 287.274V261.409C595.304 261.409 639.197 258.956 639.197 274.342C639.197 289.727 595.304 287.274 595.304 287.274ZM750.303 389.985C788.379 389.985 819.245 359.119 819.245 321.044C819.245 282.968 788.379 252.102 750.303 252.102C712.227 252.102 681.361 282.968 681.361 321.044C681.361 359.119 712.227 389.985 750.303 389.985ZM750.303 396.485C791.968 396.485 825.745 362.709 825.745 321.044C825.745 279.378 791.968 245.602 750.303 245.602C708.638 245.602 674.861 279.378 674.861 321.044C674.861 362.709 708.638 396.485 750.303 396.485ZM749.5 371C777.391 371 800 348.39 800 320.5C800 292.61 777.391 270 749.5 270C721.61 270 699 292.61 699 320.5C699 348.39 721.61 371 749.5 371ZM749.5 374C779.048 374 803 350.047 803 320.5C803 290.953 779.048 267 749.5 267C719.953 267 696 290.953 696 320.5C696 350.047 719.953 374 749.5 374ZM978.36 321.044C978.36 359.119 947.493 389.985 909.418 389.985C871.342 389.985 840.476 359.119 840.476 321.044C840.476 282.968 871.342 252.102 909.418 252.102C947.493 252.102 978.36 282.968 978.36 321.044ZM984.86 321.044C984.86 362.709 951.083 396.485 909.418 396.485C867.752 396.485 833.976 362.709 833.976 321.044C833.976 279.378 867.752 245.602 909.418 245.602C951.083 245.602 984.86 279.378 984.86 321.044ZM960 320.5C960 348.39 937.391 371 909.5 371C881.61 371 859 348.39 859 320.5C859 292.61 881.61 270 909.5 270C937.391 270 960 292.61 960 320.5ZM963 320.5C963 350.047 939.047 374 909.5 374C879.953 374 856 350.047 856 320.5C856 290.953 879.953 267 909.5 267C939.047 267 963 290.953 963 320.5ZM1012.29 396.485H993.091V245.602H1009.55L1042.47 287.021L1075.39 245.602H1089.11V396.485H1069.9V281.104H1067.16L1042.47 313.647L1015.04 281.104H1012.29V396.485ZM1036.98 358.025V343.232H1050.7V358.025H1036.98ZM1036.98 396.485V381.693H1050.7V396.485H1036.98Z" fill="black"/>
<path fill-rule="evenodd" clip-rule="evenodd" d="M477 20.2088V24.0602H494.056V27.6365H477V35.0643L480.301 38.3655H495.707L499.008 35.0643V30.6627L496.807 27.6365L499.008 25.1606V23.51L495.707 20.2088H477ZM481.677 30.6626V34.5141H494.056V30.6626H481.677ZM502.859 38.3655H501.759V23.6132L504.51 20.2088H519.916L522.667 23.6132V38.3655H521.566L518.265 35.5285V30.9893H510.012V27.0176H518.265V23.6132H506.161V35.5285L502.859 38.3655ZM525.418 20.2088L528.169 23.6132H533.12V34.3937L536.422 38.3655H538.072V23.6132H542.474L545.225 20.2088H525.418ZM550.727 23.6132L547.976 20.2088H567.783L565.032 23.6132H560.631V38.3655H558.98L555.679 34.3937V23.6132H550.727ZM570.534 20.2088H571.634L574.936 23.6132V34.9611H587.04L590.341 38.3655H573.835L570.534 34.9611V20.2088ZM596.394 20.2088L593.092 23.6132H610.149L613.45 20.2088H596.394ZM593.092 27.0176H606.847L603.546 30.4219H597.494V34.3937H610.699L614 38.3655H595.843L593.092 34.9611V27.0176ZM496.807 44.5208L494.056 41.1165H512.763L516.064 44.5208V49.06L512.213 51.897H510.012L517.165 59.2731H512.213L504.51 51.897H499.008V59.2731H496.807L494.056 55.8687V51.897L497.908 48.4926H511.112V44.5208H496.807ZM519.916 44.4177L523.217 41.1165H539.173L542.474 44.4177V55.9719L539.173 59.2731H523.217L519.916 55.9719V44.4177ZM524.317 44.4177V55.4217H537.522V44.4177H524.317ZM548.526 41.1165L545.225 44.4177V55.9719L548.526 59.2731H564.482L567.783 55.9719V44.4177L564.482 41.1165H548.526ZM549.626 55.4217V44.4177H562.831V55.4217H549.626ZM573.285 59.2731L570.534 56.4361V41.1165H575.486L582.914 54.8715H584.289L591.992 41.1165H596.944V56.4361L594.193 59.2731H592.542V49.06H591.992L585.39 59.2731H581.538L575.486 48.4926H574.936V59.2731H573.285Z" fill="black"/>
<path fill-rule="evenodd" clip-rule="evenodd" d="M788.614 54.4259V36.2093C788.614 32.9797 789.415 30.4707 791.018 28.6824C792.648 26.8941 794.958 26 797.946 26C800.961 26 803.271 26.7207 804.874 28.162C806.504 29.6033 807.319 31.6318 807.319 34.2475C807.319 35.929 806.911 37.3036 806.096 38.3713C805.281 39.4389 803.896 40.2797 801.94 40.8936V41.0537C803.977 41.8278 805.335 42.9354 806.015 44.3767C806.721 45.7914 807.074 48.1402 807.074 51.4232V54.4259H803.244V49.3012C803.244 47.2727 802.659 45.6979 801.491 44.5769C800.323 43.4292 798.639 42.8554 796.438 42.8554H794.238V39.3321H796.56C799.168 39.3321 800.975 38.8117 801.98 37.7707C802.985 36.7298 803.488 35.4886 803.488 34.0473C803.488 32.6861 802.985 31.5918 801.98 30.7643C801.002 29.9369 799.698 29.5232 798.068 29.5232C796.194 29.5232 794.781 30.0437 793.83 31.0846C792.906 32.1256 792.445 33.8338 792.445 36.2093V54.4259H788.614ZM767 40.4131C767.027 35.9557 768.277 32.5126 770.749 30.0837C773.249 27.6281 776.685 26.4004 781.059 26.4004H783.708V29.9236H780.57C777.555 29.9236 775.232 30.9111 773.602 32.8863C771.999 34.8347 771.17 37.3437 771.116 40.4131C771.17 43.4826 771.999 46.0049 773.602 47.98C775.232 49.9285 777.555 50.9027 780.57 50.9027H783.708V54.4259H781.059C776.685 54.4259 773.249 53.2115 770.749 50.7826C768.277 48.327 767.027 44.8705 767 40.4131ZM812.014 54.4259H828.233V50.9027H815.844V41.6943H825.258V38.1711H815.844V33.6069C815.844 31.1514 817.339 29.9236 820.327 29.9236H828.233V26.4004H820.857C819.281 26.4004 817.95 26.5205 816.863 26.7607C815.776 27.0009 814.798 27.5214 813.929 28.3221C812.652 29.5232 812.014 31.1113 812.014 33.0865V54.4259ZM836.131 54.4259H832.504V36.8098C832.504 33.9272 833.441 31.4717 835.316 29.4431C837.217 27.4146 839.662 26.4004 842.651 26.4004H851.983V54.4259H848.152V29.9236H842.651C840.668 29.9236 839.078 30.4974 837.883 31.6451C836.715 32.7929 836.131 34.6212 836.131 37.1301V40.5332C837.652 38.9585 839.825 38.1711 842.651 38.1711H846.359V41.6943H842.651C841.075 41.6943 839.785 41.8811 838.779 42.2548C837.801 42.6285 836.918 43.2691 836.131 44.1766V54.4259ZM855.87 26.4004V29.9236H862.92V54.4259H866.751V29.9236H873.8V26.4004H855.87ZM881.512 54.4259H877.681V26.4004H881.512V54.4259ZM889.37 26.4004H885.295L896.782 55.4268L907.708 26.4004H903.633L896.502 44.4168L889.37 26.4004ZM927.122 54.4259H910.903V50.9027H923.291V41.6943H913.878V38.1711H923.291V33.6069C923.291 31.1513 921.797 29.9236 918.809 29.9236H910.903V26.4004H918.279C919.854 26.4004 921.186 26.5205 922.272 26.7607C923.359 27.0009 924.337 27.5214 925.206 28.3221C926.483 29.5232 927.122 31.1113 927.122 33.0864V54.4259ZM1030.98 26.4004H934.196V55.4268H964.759H966.796H1030.98V26.4004ZM969.56 49.8024C970.598 50.2025 971.727 50.4222 972.909 50.4222C977.973 50.4222 982.078 46.3891 982.078 41.414C982.078 38.0868 980.242 35.181 977.511 33.621L969.56 49.8024ZM975.84 32.8758C974.92 32.571 973.934 32.4058 972.909 32.4058C967.845 32.4058 963.74 36.4389 963.74 41.414C963.74 44.5846 965.408 47.3726 967.928 48.978L975.84 32.8758ZM949.048 50.4222H945.402V32.4058H958.164C958.164 32.4058 960.255 33.9877 960.898 35.4086C961.735 37.258 961.991 38.8286 960.898 40.5561C960.187 41.6805 958.164 42.7009 958.164 42.7009L962.721 50.4222H959.075L954.062 42.7009V40.5561H957.252C959.258 39.2692 959.258 37.1244 957.252 35.8375H949.048V50.4222ZM992.266 50.4222C997.33 50.4222 1001.43 46.3891 1001.43 41.414C1001.43 36.4389 997.33 32.4058 992.266 32.4058C987.202 32.4058 983.097 36.4389 983.097 41.414C983.097 46.3891 987.202 50.4222 992.266 50.4222ZM1005.95 50.4222H1002.45V32.4058H1006.82L1011.19 43.2157H1012.06L1016.43 32.4058H1020.79V50.4222H1017.3V38.7116H1016.43L1012.06 50.4222H1011.19L1006.82 38.7116H1005.95V50.4222Z" fill="black"/>
<path fill-rule="evenodd" clip-rule="evenodd" d="M120.518 18.5845H127.487V30.9741H134.457C134.457 30.9741 136.254 30.4999 136.78 30.1998C137.367 29.8643 137.941 29.4254 137.941 29.4254L116.646 0H134.457C134.457 0 151.105 1.93588 151.492 18.5845C151.879 35.2331 134.457 37.169 134.457 37.169H120.518V18.5845ZM129.809 6.19483L143.748 24.7793C143.748 24.7793 145.832 17.193 143.748 13.164C142.372 10.505 140.952 9.18298 138.327 7.74354C135.363 6.11785 129.809 6.19483 129.809 6.19483ZM159.835 37.169H151.491L169.696 0H171.214L188.66 37.169H170.455V31.1006H178.041L170.455 15.171L159.835 37.169ZM198.727 37.169H191.758V22.4563H201.825L188.661 0H206.471C206.471 0 215.763 0.774354 218.473 10.841C221.183 20.9076 212.666 26.328 212.666 26.328L219.635 37.169H211.117L205.696 28.6511H198.727V37.169ZM208.794 20.9075L200.276 6.96918H205.696C205.696 6.96918 209.955 6.96918 211.891 12.3897C213.827 17.8101 208.794 20.9075 208.794 20.9075ZM231.745 0H225.055V37.169L236.206 23.0448L245.126 35.6822H253.303L240.666 17.4694L253.303 0H245.126L231.745 18.5845V0ZM121.292 77.4354H128.261V68.9175H135.23L140.651 77.4354H149.169L142.199 66.5944C142.199 66.5944 150.717 61.174 148.007 51.1074C145.297 41.0408 136.005 40.2664 136.005 40.2664H118.194L131.359 62.7227H121.292V77.4354ZM129.809 47.2356L138.327 61.1739C138.327 61.1739 143.36 58.0765 141.424 52.656C139.489 47.2356 135.23 47.2356 135.23 47.2356H129.809ZM171.225 70.3735C170.37 70.624 169.464 70.7584 168.527 70.7584C163.234 70.7584 158.943 66.4673 158.943 61.1739C158.943 59.8894 159.196 58.6638 159.654 57.5443L171.225 70.3735ZM177.263 65.123L165.497 52.0783C166.45 51.7612 167.468 51.5895 168.527 51.5895C173.821 51.5895 178.112 55.8806 178.112 61.1739C178.112 62.5818 177.808 63.9188 177.263 65.123ZM183.627 72.0106C180.254 76.7027 174.747 79.7584 168.527 79.7584C158.263 79.7584 149.943 71.4379 149.943 61.1739C149.943 50.91 158.263 42.5895 168.527 42.5895C174.747 42.5895 180.254 45.6452 183.627 50.3373C187 45.6452 192.507 42.5895 198.727 42.5895C208.991 42.5895 217.311 50.91 217.311 61.1739C217.311 71.4379 208.991 79.7584 198.727 79.7584C192.507 79.7584 187 76.7027 183.627 72.0106ZM198.727 70.7584C197.79 70.7584 196.885 70.6241 196.029 70.3736L207.6 57.5447C208.059 58.6641 208.311 59.8895 208.311 61.1739C208.311 66.4673 204.02 70.7584 198.727 70.7584ZM201.757 52.0784L189.991 65.1233C189.446 63.919 189.142 62.5819 189.142 61.1739C189.142 55.8806 193.433 51.5895 198.727 51.5895C199.786 51.5895 200.805 51.7612 201.757 52.0784ZM220.281 42.5895L227.822 40.7289L236.225 56.7222L244.333 40.7765L251.899 42.5895V79.7584H243.899V59.2813L239.849 67.2459L236.342 74.1435L232.742 67.2934L228.281 58.8021V79.7584H220.281V42.5895ZM110 78.9841V0.774344H114V78.9841H110ZM256.353 0.774345V78.9841H260.353V0.774345H256.353Z" fill="url(#paint1_linear_497_2899)"/>
<defs>
<linearGradient id="paint0_linear_497_2899" x1="485.052" y1="396.316" x2="485.052" y2="226.725" gradientUnits="userSpaceOnUse">
<stop/>
<stop offset="1" stop-color="white"/>
</linearGradient>
<linearGradient id="paint1_linear_497_2899" x1="185.176" y1="0" x2="185.176" y2="79.7584" gradientUnits="userSpaceOnUse">
<stop/>
<stop offset="1" stop-color="#630000"/>
</linearGradient>
</defs>
</svg>
