<svg width="607" height="51" viewBox="0 0 607 51" fill="none" xmlns="http://www.w3.org/2000/svg">
<path d="M19.0469 32.5156C19.0469 33.4271 18.8841 34.2865 18.5586 35.0938C18.2331 35.901 17.7839 36.6107 17.2109 37.2227C16.638 37.8346 15.9609 38.3359 15.1797 38.7266C14.4115 39.1042 13.5846 39.3255 12.6992 39.3906L15.2578 45.1523H12.7383L10.1797 39.3906C9.22917 39.3906 8.33073 39.2148 7.48438 38.8633C6.65104 38.4987 5.92188 38.0039 5.29688 37.3789C4.67188 36.7539 4.17708 36.0247 3.8125 35.1914C3.46094 34.3581 3.28516 33.4661 3.28516 32.5156V17.4766C3.28516 16.526 3.46094 15.6341 3.8125 14.8008C4.17708 13.9674 4.67188 13.2383 5.29688 12.6133C5.92188 11.9883 6.65104 11.5 7.48438 11.1484C8.33073 10.7839 9.22917 10.6016 10.1797 10.6016H12.1719C13.1224 10.6016 14.0143 10.7839 14.8477 11.1484C15.681 11.5 16.4102 11.9883 17.0352 12.6133C17.6602 13.2383 18.1484 13.9674 18.5 14.8008C18.8646 15.6341 19.0469 16.526 19.0469 17.4766V32.5156ZM16.5273 17.4766C16.5273 16.8516 16.4102 16.2721 16.1758 15.7383C15.9414 15.1914 15.6224 14.7161 15.2188 14.3125C14.8151 13.9089 14.3398 13.5898 13.793 13.3555C13.2591 13.1211 12.6797 13.0039 12.0547 13.0039H10.2969C9.67188 13.0039 9.08594 13.1211 8.53906 13.3555C8.00521 13.5898 7.52995 13.9089 7.11328 14.3125C6.70964 14.7161 6.39062 15.1914 6.15625 15.7383C5.92188 16.2721 5.80469 16.8516 5.80469 17.4766V32.5156C5.80469 33.1406 5.92188 33.7266 6.15625 34.2734C6.39062 34.8073 6.70964 35.2826 7.11328 35.6992C7.52995 36.1029 8.00521 36.4219 8.53906 36.6562C9.08594 36.8906 9.67188 37.0078 10.2969 37.0078H12.0547C12.6797 37.0078 13.2591 36.8906 13.793 36.6562C14.3398 36.4219 14.8151 36.1029 15.2188 35.6992C15.6224 35.2826 15.9414 34.8073 16.1758 34.2734C16.4102 33.7266 16.5273 33.1406 16.5273 32.5156V17.4766ZM40.4141 32.5156C40.4141 33.4661 40.2318 34.3581 39.8672 35.1914C39.5156 36.0247 39.0273 36.7539 38.4023 37.3789C37.7773 38.0039 37.0482 38.4987 36.2148 38.8633C35.3815 39.2148 34.4896 39.3906 33.5391 39.3906H31.5469C30.5964 39.3906 29.6979 39.2148 28.8516 38.8633C28.0182 38.4987 27.2891 38.0039 26.6641 37.3789C26.0391 36.7539 25.5443 36.0247 25.1797 35.1914C24.8281 34.3581 24.6523 33.4661 24.6523 32.5156V10.9922H27.1719V32.5156C27.1719 33.1406 27.2891 33.7266 27.5234 34.2734C27.7578 34.8073 28.0768 35.2826 28.4805 35.6992C28.8971 36.1029 29.3724 36.4219 29.9062 36.6562C30.4531 36.8906 31.0391 37.0078 31.6641 37.0078H33.4219C34.0469 37.0078 34.6263 36.8906 35.1602 36.6562C35.707 36.4219 36.1823 36.1029 36.5859 35.6992C36.9896 35.2826 37.3086 34.8073 37.543 34.2734C37.7773 33.7266 37.8945 33.1406 37.8945 32.5156V10.9922H40.4141V32.5156ZM47.0352 19.6055H46.0195V10.9922H49.0273L47.0352 19.6055ZM54.2422 39V10.9922H70.0039V13.3945H56.7617V23.8047H67.4844V26.207H56.7617V36.5977H70.0039V39H54.2422ZM90.1797 32.5156C90.1797 33.4661 89.9844 34.3581 89.5938 35.1914C89.2161 36.0247 88.7018 36.7539 88.0508 37.3789C87.4128 38.0039 86.6641 38.4987 85.8047 38.8633C84.9583 39.2148 84.0599 39.3906 83.1094 39.3906H81.0977C80.1471 39.3906 79.2422 39.2148 78.3828 38.8633C77.5365 38.4987 76.7878 38.0039 76.1367 37.3789C75.4987 36.7539 74.9844 36.0247 74.5938 35.1914C74.2161 34.3581 74.0273 33.4661 74.0273 32.5156V31.4023L76.5469 30.9922V32.5156C76.5469 33.1406 76.6706 33.7266 76.918 34.2734C77.1784 34.8073 77.5234 35.2826 77.9531 35.6992C78.3828 36.1029 78.8776 36.4219 79.4375 36.6562C80.0104 36.8906 80.6094 37.0078 81.2344 37.0078H82.9922C83.6172 37.0078 84.2096 36.8906 84.7695 36.6562C85.3294 36.4219 85.8242 36.1029 86.2539 35.6992C86.6836 35.2826 87.0221 34.8073 87.2695 34.2734C87.5299 33.7266 87.6602 33.1406 87.6602 32.5156V31.6758C87.6602 30.7122 87.4714 29.9115 87.0938 29.2734C86.7161 28.6354 86.2148 28.0951 85.5898 27.6523C84.9648 27.1966 84.2552 26.8125 83.4609 26.5C82.6797 26.1875 81.8724 25.875 81.0391 25.5625C80.2057 25.25 79.3919 24.9049 78.5977 24.5273C77.8164 24.1497 77.1133 23.681 76.4883 23.1211C75.8633 22.5482 75.362 21.8516 74.9844 21.0312C74.6068 20.2109 74.418 19.2018 74.418 18.0039V17.4766C74.418 16.526 74.5938 15.6341 74.9453 14.8008C75.3099 13.9674 75.8047 13.2383 76.4297 12.6133C77.0547 11.9883 77.7839 11.5 78.6172 11.1484C79.4635 10.7839 80.362 10.6016 81.3125 10.6016H83.1094C84.0599 10.6016 84.9518 10.7839 85.7852 11.1484C86.6185 11.5 87.3477 11.9883 87.9727 12.6133C88.5977 13.2383 89.0859 13.9674 89.4375 14.8008C89.8021 15.6341 89.9844 16.526 89.9844 17.4766V18.1992L87.4648 18.6094V17.4766C87.4648 16.8516 87.3477 16.2721 87.1133 15.7383C86.8789 15.1914 86.5599 14.7161 86.1562 14.3125C85.7526 13.9089 85.2773 13.5898 84.7305 13.3555C84.1966 13.1211 83.6172 13.0039 82.9922 13.0039H81.4297C80.8047 13.0039 80.2188 13.1211 79.6719 13.3555C79.138 13.5898 78.6628 13.9089 78.2461 14.3125C77.8424 14.7161 77.5234 15.1914 77.2891 15.7383C77.0547 16.2721 76.9375 16.8516 76.9375 17.4766V18.0039C76.9375 18.9023 77.1263 19.6576 77.5039 20.2695C77.8815 20.8815 78.3828 21.4089 79.0078 21.8516C79.6328 22.2812 80.3359 22.6589 81.1172 22.9844C81.9115 23.2969 82.7253 23.6224 83.5586 23.9609C84.3919 24.2865 85.1992 24.651 85.9805 25.0547C86.7747 25.4453 87.4844 25.9336 88.1094 26.5195C88.7344 27.0924 89.2357 27.7956 89.6133 28.6289C89.9909 29.4622 90.1797 30.4779 90.1797 31.6758V32.5156ZM102.406 13.3945V39H99.8867V13.3945H93.207V10.9922H109.086V13.3945H102.406ZM137.68 32.5156C137.68 33.4661 137.497 34.3581 137.133 35.1914C136.781 36.0247 136.293 36.7539 135.668 37.3789C135.043 38.0039 134.314 38.4987 133.48 38.8633C132.647 39.2148 131.755 39.3906 130.805 39.3906H128.812C127.862 39.3906 126.964 39.2148 126.117 38.8633C125.284 38.4987 124.555 38.0039 123.93 37.3789C123.305 36.7539 122.81 36.0247 122.445 35.1914C122.094 34.3581 121.918 33.4661 121.918 32.5156V17.4766C121.918 16.526 122.094 15.6341 122.445 14.8008C122.81 13.9674 123.305 13.2383 123.93 12.6133C124.555 11.9883 125.284 11.5 126.117 11.1484C126.964 10.7839 127.862 10.6016 128.812 10.6016H130.805C131.755 10.6016 132.647 10.7839 133.48 11.1484C134.314 11.5 135.043 11.9883 135.668 12.6133C136.293 13.2383 136.781 13.9674 137.133 14.8008C137.497 15.6341 137.68 16.526 137.68 17.4766V18.6094L135.16 19V17.4766C135.16 16.8516 135.043 16.2721 134.809 15.7383C134.574 15.1914 134.255 14.7161 133.852 14.3125C133.448 13.9089 132.973 13.5898 132.426 13.3555C131.892 13.1211 131.312 13.0039 130.688 13.0039H128.93C128.305 13.0039 127.719 13.1211 127.172 13.3555C126.638 13.5898 126.163 13.9089 125.746 14.3125C125.342 14.7161 125.023 15.1914 124.789 15.7383C124.555 16.2721 124.438 16.8516 124.438 17.4766V32.5156C124.438 33.1406 124.555 33.7266 124.789 34.2734C125.023 34.8073 125.342 35.2826 125.746 35.6992C126.163 36.1029 126.638 36.4219 127.172 36.6562C127.719 36.8906 128.305 37.0078 128.93 37.0078H130.688C131.312 37.0078 131.892 36.8906 132.426 36.6562C132.973 36.4219 133.448 36.1029 133.852 35.6992C134.255 35.2826 134.574 34.8073 134.809 34.2734C135.043 33.7266 135.16 33.1406 135.16 32.5156V30.9922L137.68 31.4023V32.5156ZM143.305 39V10.9922H159.066V13.3945H145.824V23.8047H156.547V26.207H145.824V36.5977H159.066V39H143.305ZM188.461 32.5156C188.461 33.4271 188.298 34.2865 187.973 35.0938C187.647 35.901 187.198 36.6107 186.625 37.2227C186.052 37.8346 185.375 38.3359 184.594 38.7266C183.826 39.1042 182.999 39.3255 182.113 39.3906L184.672 45.1523H182.152L179.594 39.3906C178.643 39.3906 177.745 39.2148 176.898 38.8633C176.065 38.4987 175.336 38.0039 174.711 37.3789C174.086 36.7539 173.591 36.0247 173.227 35.1914C172.875 34.3581 172.699 33.4661 172.699 32.5156V17.4766C172.699 16.526 172.875 15.6341 173.227 14.8008C173.591 13.9674 174.086 13.2383 174.711 12.6133C175.336 11.9883 176.065 11.5 176.898 11.1484C177.745 10.7839 178.643 10.6016 179.594 10.6016H181.586C182.536 10.6016 183.428 10.7839 184.262 11.1484C185.095 11.5 185.824 11.9883 186.449 12.6133C187.074 13.2383 187.562 13.9674 187.914 14.8008C188.279 15.6341 188.461 16.526 188.461 17.4766V32.5156ZM185.941 17.4766C185.941 16.8516 185.824 16.2721 185.59 15.7383C185.355 15.1914 185.036 14.7161 184.633 14.3125C184.229 13.9089 183.754 13.5898 183.207 13.3555C182.673 13.1211 182.094 13.0039 181.469 13.0039H179.711C179.086 13.0039 178.5 13.1211 177.953 13.3555C177.419 13.5898 176.944 13.9089 176.527 14.3125C176.124 14.7161 175.805 15.1914 175.57 15.7383C175.336 16.2721 175.219 16.8516 175.219 17.4766V32.5156C175.219 33.1406 175.336 33.7266 175.57 34.2734C175.805 34.8073 176.124 35.2826 176.527 35.6992C176.944 36.1029 177.419 36.4219 177.953 36.6562C178.5 36.8906 179.086 37.0078 179.711 37.0078H181.469C182.094 37.0078 182.673 36.8906 183.207 36.6562C183.754 36.4219 184.229 36.1029 184.633 35.6992C185.036 35.2826 185.355 34.8073 185.59 34.2734C185.824 33.7266 185.941 33.1406 185.941 32.5156V17.4766ZM209.828 32.5156C209.828 33.4661 209.646 34.3581 209.281 35.1914C208.93 36.0247 208.441 36.7539 207.816 37.3789C207.191 38.0039 206.462 38.4987 205.629 38.8633C204.796 39.2148 203.904 39.3906 202.953 39.3906H200.961C200.01 39.3906 199.112 39.2148 198.266 38.8633C197.432 38.4987 196.703 38.0039 196.078 37.3789C195.453 36.7539 194.958 36.0247 194.594 35.1914C194.242 34.3581 194.066 33.4661 194.066 32.5156V10.9922H196.586V32.5156C196.586 33.1406 196.703 33.7266 196.938 34.2734C197.172 34.8073 197.491 35.2826 197.895 35.6992C198.311 36.1029 198.786 36.4219 199.32 36.6562C199.867 36.8906 200.453 37.0078 201.078 37.0078H202.836C203.461 37.0078 204.04 36.8906 204.574 36.6562C205.121 36.4219 205.596 36.1029 206 35.6992C206.404 35.2826 206.723 34.8073 206.957 34.2734C207.191 33.7266 207.309 33.1406 207.309 32.5156V10.9922H209.828V32.5156ZM215.844 39V10.9922H231.605V13.3945H218.363V23.8047H229.086V26.207H218.363V36.5977H231.605V39H215.844ZM245.238 39V10.9922H247.758V36.5977H258.48V39H245.238ZM272.992 32.4766H264.125L262.289 39H259.672L267.875 10.9922H269.203L277.445 39H274.848L272.992 32.4766ZM264.809 30.0742H272.328L268.637 17.1641L268.559 16.1289L268.48 17.1641L264.809 30.0742ZM594.438 39V35.9922H597.426V39H594.438ZM597.191 30.5234H594.672V29.7617C594.672 28.9023 594.776 28.1536 594.984 27.5156C595.193 26.8776 595.466 26.3177 595.805 25.8359C596.156 25.3542 596.547 24.9245 596.977 24.5469C597.419 24.1693 597.868 23.8112 598.324 23.4727C598.793 23.1211 599.242 22.7695 599.672 22.418C600.115 22.0664 600.505 21.6758 600.844 21.2461C601.195 20.8164 601.475 20.3281 601.684 19.7812C601.892 19.2344 601.996 18.5898 601.996 17.8477V17.4766C601.996 16.8516 601.879 16.2721 601.645 15.7383C601.41 15.1914 601.085 14.7161 600.668 14.3125C600.264 13.9089 599.789 13.5898 599.242 13.3555C598.708 13.1211 598.129 13.0039 597.504 13.0039H596.957C596.332 13.0039 595.746 13.1211 595.199 13.3555C594.665 13.5898 594.19 13.9089 593.773 14.3125C593.37 14.7161 593.051 15.1914 592.816 15.7383C592.582 16.2721 592.465 16.8516 592.465 17.4766V18.6094L589.945 18.1992V17.4766C589.945 16.526 590.121 15.6341 590.473 14.8008C590.837 13.9674 591.332 13.2383 591.957 12.6133C592.582 11.9883 593.311 11.5 594.145 11.1484C594.991 10.7839 595.889 10.6016 596.84 10.6016H597.641C598.591 10.6016 599.483 10.7839 600.316 11.1484C601.15 11.5 601.879 11.9883 602.504 12.6133C603.129 13.2383 603.617 13.9674 603.969 14.8008C604.333 15.6341 604.516 16.526 604.516 17.4766V17.8477C604.516 18.7461 604.411 19.5339 604.203 20.2109C603.995 20.888 603.715 21.487 603.363 22.0078C603.025 22.5286 602.634 22.9909 602.191 23.3945C601.762 23.7982 601.312 24.1758 600.844 24.5273C600.388 24.8789 599.939 25.224 599.496 25.5625C599.066 25.901 598.676 26.2721 598.324 26.6758C597.986 27.0794 597.712 27.5286 597.504 28.0234C597.296 28.5182 597.191 29.0977 597.191 29.7617V30.5234Z" fill="#3B4040"/>
</svg>
