<svg width="831" height="462" viewBox="0 0 831 462" fill="none" xmlns="http://www.w3.org/2000/svg">
<path fill-rule="evenodd" clip-rule="evenodd" d="M0 7.20884V11.0602H17.0562V14.6365H0V22.0643L3.3012 25.3655H18.7068L22.008 22.0643V17.6627L19.8072 14.6365L22.008 12.1606V10.51L18.7068 7.20884H0ZM4.67676 17.6626V21.5141H17.0563V17.6626H4.67676ZM25.8595 25.3655H24.7591V10.6132L27.5101 7.20884H42.9157L45.6667 10.6132V25.3655H44.5663L41.2651 22.5285V17.9893H33.0121V14.0176H41.2651V10.6132H29.1607V22.5285L25.8595 25.3655ZM48.4177 7.20884L51.1687 10.6132H56.1205V21.3937L59.4217 25.3655H61.0723V10.6132H65.4739L68.2249 7.20884H48.4177ZM73.727 10.6132L70.976 7.20884H90.7832L88.0322 10.6132H83.6306V25.3655H81.98L78.6788 21.3937V10.6132H73.727ZM93.5341 7.20884H94.6345L97.9357 10.6132V21.9611H110.04L113.341 25.3655H96.8353L93.5341 21.9611V7.20884ZM119.394 7.20884L116.092 10.6132H133.149L136.45 7.20884H119.394ZM116.092 14.0176H129.847L126.546 17.4219H120.494V21.3937H133.699L137 25.3655H118.843L116.092 21.9611V14.0176ZM19.8072 31.5208L17.0562 28.1165H35.763L39.0642 31.5208V36.06L35.2128 38.897H33.012L40.1646 46.2731H35.2128L27.51 38.897H22.008V46.2731H19.8072L17.0562 42.8687V38.897L20.9076 35.4926H34.1124V31.5208H19.8072ZM42.9157 31.4177L46.2169 28.1165H62.1727L65.4739 31.4177V42.9719L62.1727 46.2731H46.2169L42.9157 42.9719V31.4177ZM47.3173 31.4177V42.4217H60.5221V31.4177H47.3173ZM71.5261 28.1165L68.2249 31.4177V42.9719L71.5261 46.2731H87.4819L90.7831 42.9719V31.4177L87.4819 28.1165H71.5261ZM72.6265 42.4217V31.4177H85.8313V42.4217H72.6265ZM96.2851 46.2731L93.5341 43.4361V28.1165H98.4859L105.914 41.8715H107.289L114.992 28.1165H119.944V43.4361L117.193 46.2731H115.542V36.06H114.992L108.39 46.2731H104.538L98.4859 35.4926H97.9357V46.2731H96.2851Z" fill="white"/>
<path fill-rule="evenodd" clip-rule="evenodd" d="M280.384 301.159H248.919L317.569 161H323.29L389.079 301.159H320.429V278.276H349.033L320.429 218.208L280.384 301.159ZM132.12 231.08H158.4V277.799H184.68C184.68 277.799 191.46 276.011 193.44 274.879C195.654 273.614 197.82 271.959 197.82 271.959L117.52 161H184.68C184.68 161 247.46 168.3 248.92 231.08C250.38 293.859 184.68 301.159 184.68 301.159H132.12V231.08ZM167.16 184.36L219.719 254.439C219.719 254.439 227.578 225.833 219.719 210.64C214.533 200.613 209.177 195.628 199.279 190.2C188.101 184.07 167.16 184.36 167.16 184.36ZM427.038 301.159H400.758V245.68H438.718L389.078 161H456.238C456.238 161 491.278 163.92 501.498 201.88C511.717 239.84 479.598 260.279 479.598 260.279L505.878 301.159H473.758L453.318 269.039H427.038V301.159ZM464.999 239.84L432.879 187.28H453.319C453.319 187.28 469.379 187.28 476.679 207.72C483.979 228.16 464.999 239.84 464.999 239.84ZM551.546 161H526.318V301.159L568.366 247.899L602.004 295.553H632.839L585.185 226.875L632.839 161H602.004L551.546 231.08V161ZM135.04 452.999H161.32V420.879H187.6L208.04 452.999H240.16L213.88 412.119C213.88 412.119 246 391.679 235.78 353.719C225.56 315.759 190.52 312.839 190.52 312.839H123.36L173 397.519H135.04V452.999ZM167.159 339.119L199.279 391.679C199.279 391.679 218.259 379.999 210.959 359.559C203.659 339.119 187.599 339.119 187.599 339.119H167.159ZM341.594 432.909C333.517 438.49 323.72 441.758 313.159 441.758C285.501 441.758 263.08 419.337 263.08 391.679C263.08 380.105 267.006 369.447 273.6 360.967L341.594 432.909ZM352.526 422.638L284.468 350.628C292.593 344.938 302.487 341.599 313.159 341.599C334.123 341.599 352.079 354.48 359.542 372.76C357.859 378.778 356.959 385.123 356.959 391.679C356.959 398.234 357.859 404.58 359.542 410.598C357.765 414.951 355.392 418.998 352.526 422.638ZM370.099 432.542C357.378 450.236 336.615 461.758 313.159 461.758C274.456 461.758 243.08 430.383 243.08 391.679C243.08 352.975 274.456 321.599 313.159 321.599C336.615 321.599 357.378 333.122 370.099 350.816C382.819 333.122 403.583 321.599 427.038 321.599C465.742 321.599 497.118 352.975 497.118 391.679C497.118 430.383 465.742 461.758 427.038 461.758C403.583 461.758 382.819 450.236 370.099 432.542ZM380.656 410.598C382.837 415.941 385.916 420.824 389.704 425.058L454.888 350.051C446.925 344.713 437.345 341.599 427.038 341.599C406.074 341.599 388.119 354.48 380.656 372.76C382.339 378.778 383.239 385.123 383.239 391.679C383.239 398.234 382.339 404.58 380.656 410.598ZM427.038 441.758C417.611 441.758 408.792 439.154 401.262 434.624L465.966 360.171C472.94 368.776 477.118 379.74 477.118 391.679C477.118 419.337 454.697 441.758 427.038 441.758ZM513.398 321.599L532.25 316.948L568.512 385.962L603.544 317.067L622.458 321.599V461.758H602.458V363.329L577.572 412.271L568.803 429.515L559.805 412.39L533.398 362.131V461.758H513.398V321.599ZM98 458.838V163.92H102V458.838H98ZM649.878 163.92V458.838H653.878V163.92H649.878Z" fill="url(#paint0_linear_1849_6072)"/>
<path fill-rule="evenodd" clip-rule="evenodd" d="M697.817 44.3064H707.195V41.3064H699.898L710.505 9.48683L721.769 43.2807L724.615 42.332L711.928 4.26907L710.505 0L709.082 4.26907L696.394 42.332L695.736 44.3064H697.817ZM720.986 42.2548C720.681 42.2548 720.434 42.5017 720.434 42.8064C720.434 43.111 720.681 43.358 720.986 43.358C721.29 43.358 721.537 43.111 721.537 42.8064C721.537 42.5017 721.29 42.2548 720.986 42.2548ZM718.228 42.8064C718.228 42.5017 718.475 42.2548 718.779 42.2548C719.084 42.2548 719.331 42.5017 719.331 42.8064C719.331 43.111 719.084 43.358 718.779 43.358C718.475 43.358 718.228 43.111 718.228 42.8064ZM716.573 42.2548C716.268 42.2548 716.021 42.5017 716.021 42.8064C716.021 43.111 716.268 43.358 716.573 43.358C716.877 43.358 717.124 43.111 717.124 42.8064C717.124 42.5017 716.877 42.2548 716.573 42.2548ZM713.814 42.8064C713.814 42.5017 714.061 42.2548 714.366 42.2548C714.671 42.2548 714.918 42.5017 714.918 42.8064C714.918 43.111 714.671 43.358 714.366 43.358C714.061 43.358 713.814 43.111 713.814 42.8064ZM712.159 42.2548C711.855 42.2548 711.608 42.5017 711.608 42.8064C711.608 43.111 711.855 43.358 712.159 43.358C712.464 43.358 712.711 43.111 712.711 42.8064C712.711 42.5017 712.464 42.2548 712.159 42.2548ZM709.401 42.8064C709.401 42.5017 709.648 42.2548 709.953 42.2548C710.258 42.2548 710.505 42.5017 710.505 42.8064C710.505 43.111 710.258 43.358 709.953 43.358C709.648 43.358 709.401 43.111 709.401 42.8064ZM707.747 42.2548C707.442 42.2548 707.195 42.5017 707.195 42.8064C707.195 43.111 707.442 43.358 707.747 43.358C708.051 43.358 708.298 43.111 708.298 42.8064C708.298 42.5017 708.051 42.2548 707.747 42.2548ZM715.155 8.52582L721.223 26.7298L720.748 26.888L714.68 8.68393L715.155 8.52582ZM697.028 35.556L708.061 2.45781L708.535 2.61592L697.502 35.7142L697.028 35.556Z" fill="url(#paint1_linear_1849_6072)"/>
<path fill-rule="evenodd" clip-rule="evenodd" d="M616.413 7.8791H612V38.2191H625.791V34.3577H616.413V7.8791ZM632.962 7.8791H629.101V38.2192H632.962V7.8791ZM652.827 7.8791V11.8121H645.655C642.07 12.3739 640.139 14.6213 640.139 21.0826C640.139 21.0826 641.237 32.6006 651.172 33.1625V14.0595H655.033V38.2192H651.172C651.172 38.2192 636.002 33.4434 636.277 19.9589C636.277 19.9589 635.726 9.84558 645.655 7.8791H652.827ZM658.338 7.8791H662.199V13.4976H671.025V7.8791H674.887V38.2192H671.025V20.8017H662.199V38.2192H658.338V7.8791ZM662.199 16.3069V18.5543H671.025V16.3069H662.199ZM678.197 7.8791V12.3739H685.368V38.2192H688.678V12.3739H695.849V7.8791H678.197Z" fill="white"/>
<path fill-rule="evenodd" clip-rule="evenodd" d="M732.257 38.2191H728.396V7.8791H738.325C738.325 7.8791 744.945 9.03491 744.945 13.9471C744.945 18.8593 738.325 20.3041 738.325 20.3041L747.151 37.6412V38.2191H743.29L733.912 20.3041H732.257V38.2191ZM731.705 16.2587V11.0576C731.705 11.0576 740.531 10.5645 740.531 13.6582C740.531 16.7518 731.705 16.2587 731.705 16.2587ZM762.873 31.7191C767.661 31.7191 771.543 27.8374 771.543 23.0491C771.543 18.2608 767.661 14.3791 762.873 14.3791C758.085 14.3791 754.203 18.2608 754.203 23.0491C754.203 27.8374 758.085 31.7191 762.873 31.7191ZM762.873 38.2191C771.251 38.2191 778.043 31.4273 778.043 23.0491C778.043 14.6709 771.251 7.8791 762.873 7.8791C754.495 7.8791 747.703 14.6709 747.703 23.0491C747.703 31.4273 754.495 38.2191 762.873 38.2191ZM766.665 23.0491C766.665 25.1437 764.967 26.8416 762.873 26.8416C760.778 26.8416 759.08 25.1437 759.08 23.0491C759.08 20.9546 760.778 19.2566 762.873 19.2566C764.967 19.2566 766.665 20.9546 766.665 23.0491ZM803.538 23.0491C803.538 27.8374 799.656 31.7191 794.868 31.7191C790.079 31.7191 786.198 27.8374 786.198 23.0491C786.198 18.2608 790.079 14.3791 794.868 14.3791C799.656 14.3791 803.538 18.2608 803.538 23.0491ZM810.038 23.0491C810.038 31.4273 803.246 38.2191 794.868 38.2191C786.49 38.2191 779.698 31.4273 779.698 23.0491C779.698 14.6709 786.49 7.8791 794.868 7.8791C803.246 7.8791 810.038 14.6709 810.038 23.0491ZM794.868 26.8416C796.962 26.8416 798.66 25.1437 798.66 23.0491C798.66 20.9546 796.962 19.2566 794.868 19.2566C792.773 19.2566 791.075 20.9546 791.075 23.0491C791.075 25.1437 792.773 26.8416 794.868 26.8416ZM815.554 38.2191H811.693V7.8791H815.003L821.622 16.2077L828.242 7.8791H831V38.2191H827.139V15.0179H826.587L821.622 21.5619L816.106 15.0179H815.554V38.2191ZM820.519 30.4854V27.5109H823.277V30.4854H820.519ZM820.519 38.2191V35.2446H823.277V38.2191H820.519Z" fill="white"/>
<path fill-rule="evenodd" clip-rule="evenodd" d="M276.614 40.4259V22.2093C276.614 18.9797 277.415 16.4707 279.018 14.6824C280.648 12.8941 282.957 12 285.946 12C288.961 12 291.27 12.7207 292.873 14.162C294.503 15.6033 295.318 17.6318 295.318 20.2475C295.318 21.929 294.911 23.3036 294.096 24.3713C293.281 25.4389 291.895 26.2797 289.939 26.8936V27.0537C291.977 27.8278 293.335 28.9354 294.014 30.3767C294.721 31.7914 295.074 34.1402 295.074 37.4232V40.4259H291.243V35.3012C291.243 33.2727 290.659 31.6979 289.491 30.5769C288.323 29.4292 286.638 28.8554 284.438 28.8554H282.237V25.3321H284.56C287.168 25.3321 288.975 24.8117 289.98 23.7707C290.985 22.7298 291.488 21.4886 291.488 20.0473C291.488 18.6861 290.985 17.5918 289.98 16.7643C289.002 15.9369 287.698 15.5232 286.068 15.5232C284.193 15.5232 282.781 16.0437 281.83 17.0846C280.906 18.1256 280.444 19.8338 280.444 22.2093V40.4259H276.614ZM255 26.4131C255.027 21.9557 256.277 18.5126 258.749 16.0837C261.248 13.6281 264.685 12.4004 269.059 12.4004H271.708V15.9236H268.57C265.554 15.9236 263.232 16.9111 261.602 18.8863C259.999 20.8347 259.17 23.3437 259.116 26.4131C259.17 29.4826 259.999 32.0049 261.602 33.98C263.232 35.9285 265.554 36.9027 268.57 36.9027H271.708V40.4259H269.059C264.685 40.4259 261.248 39.2115 258.749 36.7826C256.277 34.327 255.027 30.8705 255 26.4131ZM300.014 40.4259H316.232V36.9027H303.844V27.6943H313.258V24.1711H303.844V19.6069C303.844 17.1514 305.338 15.9236 308.327 15.9236H316.232V12.4004H308.856C307.281 12.4004 305.95 12.5205 304.863 12.7607C303.776 13.0009 302.798 13.5214 301.929 14.3221C300.652 15.5232 300.014 17.1113 300.014 19.0865V40.4259ZM324.13 40.4259H320.504V22.8098C320.504 19.9272 321.441 17.4717 323.315 15.4431C325.217 13.4146 327.662 12.4004 330.65 12.4004H339.982V40.4259H336.152V15.9236H330.65C328.667 15.9236 327.078 16.4974 325.883 17.6451C324.714 18.7929 324.13 20.6212 324.13 23.1301V26.5332C325.652 24.9585 327.825 24.1711 330.65 24.1711H334.359V27.6943H330.65C329.075 27.6943 327.784 27.8811 326.779 28.2548C325.801 28.6285 324.918 29.2691 324.13 30.1766V40.4259ZM343.87 12.4004V15.9236H350.92V40.4259H354.75V15.9236H361.8V12.4004H343.87ZM369.512 40.4259H365.681V12.4004H369.512V40.4259ZM377.37 12.4004H373.295L384.781 41.4268L395.708 12.4004H391.633L384.501 30.4168L377.37 12.4004ZM415.121 40.4259H398.903V36.9027H411.291V27.6943H401.877V24.1711H411.291V19.6069C411.291 17.1513 409.797 15.9236 406.808 15.9236H398.903V12.4004H406.279C407.854 12.4004 409.185 12.5205 410.272 12.7607C411.359 13.0009 412.337 13.5214 413.206 14.3221C414.483 15.5232 415.121 17.1113 415.121 19.0864V40.4259ZM518.979 12.4004H422.196V41.4268H452.759H454.796H518.979V12.4004ZM457.56 35.8024C458.597 36.2025 459.727 36.4222 460.909 36.4222C465.973 36.4222 470.078 32.3891 470.078 27.414C470.078 24.0868 468.242 21.181 465.511 19.621L457.56 35.8024ZM463.84 18.8758C462.919 18.571 461.934 18.4058 460.909 18.4058C455.845 18.4058 451.74 22.4389 451.74 27.414C451.74 30.5846 453.407 33.3726 455.927 34.978L463.84 18.8758ZM437.048 36.4222H433.402V18.4058H446.163C446.163 18.4058 448.255 19.9877 448.898 21.4086C449.735 23.258 449.99 24.8286 448.898 26.5561C448.187 27.6805 446.163 28.7009 446.163 28.7009L450.721 36.4222H447.075L442.062 28.7009V26.5561H445.252C447.257 25.2692 447.257 23.1244 445.252 21.8375H437.048V36.4222ZM480.265 36.4222C485.329 36.4222 489.434 32.3891 489.434 27.414C489.434 22.4389 485.329 18.4058 480.265 18.4058C475.202 18.4058 471.097 22.4389 471.097 27.414C471.097 32.3891 475.202 36.4222 480.265 36.4222ZM493.946 36.4222H490.453V18.4058H494.819L499.185 29.2157H500.059L504.425 18.4058H508.791V36.4222H505.298V24.7116H504.425L500.059 36.4222H499.185L494.819 24.7116H493.946V36.4222Z" fill="white"/>
<defs>
<linearGradient id="paint0_linear_1849_6072" x1="375.939" y1="161" x2="375.939" y2="461.758" gradientUnits="userSpaceOnUse">
<stop stop-color="white"/>
<stop offset="1" stop-color="white"/>
</linearGradient>
<linearGradient id="paint1_linear_1849_6072" x1="710.175" y1="44.3064" x2="710.175" y2="0" gradientUnits="userSpaceOnUse">
<stop/>
<stop offset="1" stop-color="white"/>
</linearGradient>
</defs>
</svg>
