<svg width="477" height="51" viewBox="0 0 477 51" fill="none" xmlns="http://www.w3.org/2000/svg">
<path d="M18.5781 32.5156C18.5781 33.4271 18.4154 34.2865 18.0898 35.0938C17.7643 35.901 17.3151 36.6107 16.7422 37.2227C16.1693 37.8346 15.4922 38.3359 14.7109 38.7266C13.9427 39.1042 13.1159 39.3255 12.2305 39.3906L14.7891 45.1523H12.2695L9.71094 39.3906C8.76042 39.3906 7.86198 39.2148 7.01562 38.8633C6.18229 38.4987 5.45312 38.0039 4.82812 37.3789C4.20312 36.7539 3.70833 36.0247 3.34375 35.1914C2.99219 34.3581 2.81641 33.4661 2.81641 32.5156V17.4766C2.81641 16.526 2.99219 15.6341 3.34375 14.8008C3.70833 13.9674 4.20312 13.2383 4.82812 12.6133C5.45312 11.9883 6.18229 11.5 7.01562 11.1484C7.86198 10.7839 8.76042 10.6016 9.71094 10.6016H11.7031C12.6536 10.6016 13.5456 10.7839 14.3789 11.1484C15.2122 11.5 15.9414 11.9883 16.5664 12.6133C17.1914 13.2383 17.6797 13.9674 18.0312 14.8008C18.3958 15.6341 18.5781 16.526 18.5781 17.4766V32.5156ZM16.0586 17.4766C16.0586 16.8516 15.9414 16.2721 15.707 15.7383C15.4727 15.1914 15.1536 14.7161 14.75 14.3125C14.3464 13.9089 13.8711 13.5898 13.3242 13.3555C12.7904 13.1211 12.2109 13.0039 11.5859 13.0039H9.82812C9.20312 13.0039 8.61719 13.1211 8.07031 13.3555C7.53646 13.5898 7.0612 13.9089 6.64453 14.3125C6.24089 14.7161 5.92188 15.1914 5.6875 15.7383C5.45312 16.2721 5.33594 16.8516 5.33594 17.4766V32.5156C5.33594 33.1406 5.45312 33.7266 5.6875 34.2734C5.92188 34.8073 6.24089 35.2826 6.64453 35.6992C7.0612 36.1029 7.53646 36.4219 8.07031 36.6562C8.61719 36.8906 9.20312 37.0078 9.82812 37.0078H11.5859C12.2109 37.0078 12.7904 36.8906 13.3242 36.6562C13.8711 36.4219 14.3464 36.1029 14.75 35.6992C15.1536 35.2826 15.4727 34.8073 15.707 34.2734C15.9414 33.7266 16.0586 33.1406 16.0586 32.5156V17.4766ZM39.9453 32.5156C39.9453 33.4661 39.763 34.3581 39.3984 35.1914C39.0469 36.0247 38.5586 36.7539 37.9336 37.3789C37.3086 38.0039 36.5794 38.4987 35.7461 38.8633C34.9128 39.2148 34.0208 39.3906 33.0703 39.3906H31.0781C30.1276 39.3906 29.2292 39.2148 28.3828 38.8633C27.5495 38.4987 26.8203 38.0039 26.1953 37.3789C25.5703 36.7539 25.0755 36.0247 24.7109 35.1914C24.3594 34.3581 24.1836 33.4661 24.1836 32.5156V10.9922H26.7031V32.5156C26.7031 33.1406 26.8203 33.7266 27.0547 34.2734C27.2891 34.8073 27.6081 35.2826 28.0117 35.6992C28.4284 36.1029 28.9036 36.4219 29.4375 36.6562C29.9844 36.8906 30.5703 37.0078 31.1953 37.0078H32.9531C33.5781 37.0078 34.1576 36.8906 34.6914 36.6562C35.2383 36.4219 35.7135 36.1029 36.1172 35.6992C36.5208 35.2826 36.8398 34.8073 37.0742 34.2734C37.3086 33.7266 37.4258 33.1406 37.4258 32.5156V10.9922H39.9453V32.5156ZM46.5664 19.6055H45.5508V10.9922H48.5586L46.5664 19.6055ZM53.7734 39V10.9922H69.5352V13.3945H56.293V23.8047H67.0156V26.207H56.293V36.5977H69.5352V39H53.7734ZM89.7109 32.5156C89.7109 33.4661 89.5156 34.3581 89.125 35.1914C88.7474 36.0247 88.2331 36.7539 87.582 37.3789C86.944 38.0039 86.1953 38.4987 85.3359 38.8633C84.4896 39.2148 83.5911 39.3906 82.6406 39.3906H80.6289C79.6784 39.3906 78.7734 39.2148 77.9141 38.8633C77.0677 38.4987 76.319 38.0039 75.668 37.3789C75.0299 36.7539 74.5156 36.0247 74.125 35.1914C73.7474 34.3581 73.5586 33.4661 73.5586 32.5156V31.4023L76.0781 30.9922V32.5156C76.0781 33.1406 76.2018 33.7266 76.4492 34.2734C76.7096 34.8073 77.0547 35.2826 77.4844 35.6992C77.9141 36.1029 78.4089 36.4219 78.9688 36.6562C79.5417 36.8906 80.1406 37.0078 80.7656 37.0078H82.5234C83.1484 37.0078 83.7409 36.8906 84.3008 36.6562C84.8607 36.4219 85.3555 36.1029 85.7852 35.6992C86.2148 35.2826 86.5534 34.8073 86.8008 34.2734C87.0612 33.7266 87.1914 33.1406 87.1914 32.5156V31.6758C87.1914 30.7122 87.0026 29.9115 86.625 29.2734C86.2474 28.6354 85.7461 28.0951 85.1211 27.6523C84.4961 27.1966 83.7865 26.8125 82.9922 26.5C82.2109 26.1875 81.4036 25.875 80.5703 25.5625C79.737 25.25 78.9232 24.9049 78.1289 24.5273C77.3477 24.1497 76.6445 23.681 76.0195 23.1211C75.3945 22.5482 74.8932 21.8516 74.5156 21.0312C74.138 20.2109 73.9492 19.2018 73.9492 18.0039V17.4766C73.9492 16.526 74.125 15.6341 74.4766 14.8008C74.8411 13.9674 75.3359 13.2383 75.9609 12.6133C76.5859 11.9883 77.3151 11.5 78.1484 11.1484C78.9948 10.7839 79.8932 10.6016 80.8438 10.6016H82.6406C83.5911 10.6016 84.4831 10.7839 85.3164 11.1484C86.1497 11.5 86.8789 11.9883 87.5039 12.6133C88.1289 13.2383 88.6172 13.9674 88.9688 14.8008C89.3333 15.6341 89.5156 16.526 89.5156 17.4766V18.1992L86.9961 18.6094V17.4766C86.9961 16.8516 86.8789 16.2721 86.6445 15.7383C86.4102 15.1914 86.0911 14.7161 85.6875 14.3125C85.2839 13.9089 84.8086 13.5898 84.2617 13.3555C83.7279 13.1211 83.1484 13.0039 82.5234 13.0039H80.9609C80.3359 13.0039 79.75 13.1211 79.2031 13.3555C78.6693 13.5898 78.194 13.9089 77.7773 14.3125C77.3737 14.7161 77.0547 15.1914 76.8203 15.7383C76.5859 16.2721 76.4688 16.8516 76.4688 17.4766V18.0039C76.4688 18.9023 76.6576 19.6576 77.0352 20.2695C77.4128 20.8815 77.9141 21.4089 78.5391 21.8516C79.1641 22.2812 79.8672 22.6589 80.6484 22.9844C81.4427 23.2969 82.2565 23.6224 83.0898 23.9609C83.9232 24.2865 84.7305 24.651 85.5117 25.0547C86.306 25.4453 87.0156 25.9336 87.6406 26.5195C88.2656 27.0924 88.7669 27.7956 89.1445 28.6289C89.5221 29.4622 89.7109 30.4779 89.7109 31.6758V32.5156ZM101.938 13.3945V39H99.418V13.3945H92.7383V10.9922H108.617V13.3945H101.938ZM137.211 32.5156C137.211 33.4661 137.029 34.3581 136.664 35.1914C136.312 36.0247 135.824 36.7539 135.199 37.3789C134.574 38.0039 133.845 38.4987 133.012 38.8633C132.178 39.2148 131.286 39.3906 130.336 39.3906H128.344C127.393 39.3906 126.495 39.2148 125.648 38.8633C124.815 38.4987 124.086 38.0039 123.461 37.3789C122.836 36.7539 122.341 36.0247 121.977 35.1914C121.625 34.3581 121.449 33.4661 121.449 32.5156V17.4766C121.449 16.526 121.625 15.6341 121.977 14.8008C122.341 13.9674 122.836 13.2383 123.461 12.6133C124.086 11.9883 124.815 11.5 125.648 11.1484C126.495 10.7839 127.393 10.6016 128.344 10.6016H130.336C131.286 10.6016 132.178 10.7839 133.012 11.1484C133.845 11.5 134.574 11.9883 135.199 12.6133C135.824 13.2383 136.312 13.9674 136.664 14.8008C137.029 15.6341 137.211 16.526 137.211 17.4766V18.6094L134.691 19V17.4766C134.691 16.8516 134.574 16.2721 134.34 15.7383C134.105 15.1914 133.786 14.7161 133.383 14.3125C132.979 13.9089 132.504 13.5898 131.957 13.3555C131.423 13.1211 130.844 13.0039 130.219 13.0039H128.461C127.836 13.0039 127.25 13.1211 126.703 13.3555C126.169 13.5898 125.694 13.9089 125.277 14.3125C124.874 14.7161 124.555 15.1914 124.32 15.7383C124.086 16.2721 123.969 16.8516 123.969 17.4766V32.5156C123.969 33.1406 124.086 33.7266 124.32 34.2734C124.555 34.8073 124.874 35.2826 125.277 35.6992C125.694 36.1029 126.169 36.4219 126.703 36.6562C127.25 36.8906 127.836 37.0078 128.461 37.0078H130.219C130.844 37.0078 131.423 36.8906 131.957 36.6562C132.504 36.4219 132.979 36.1029 133.383 35.6992C133.786 35.2826 134.105 34.8073 134.34 34.2734C134.574 33.7266 134.691 33.1406 134.691 32.5156V30.9922L137.211 31.4023V32.5156ZM142.836 39V10.9922H158.598V13.3945H145.355V23.8047H156.078V26.207H145.355V36.5977H158.598V39H142.836ZM187.992 32.5156C187.992 33.4271 187.829 34.2865 187.504 35.0938C187.178 35.901 186.729 36.6107 186.156 37.2227C185.583 37.8346 184.906 38.3359 184.125 38.7266C183.357 39.1042 182.53 39.3255 181.645 39.3906L184.203 45.1523H181.684L179.125 39.3906C178.174 39.3906 177.276 39.2148 176.43 38.8633C175.596 38.4987 174.867 38.0039 174.242 37.3789C173.617 36.7539 173.122 36.0247 172.758 35.1914C172.406 34.3581 172.23 33.4661 172.23 32.5156V17.4766C172.23 16.526 172.406 15.6341 172.758 14.8008C173.122 13.9674 173.617 13.2383 174.242 12.6133C174.867 11.9883 175.596 11.5 176.43 11.1484C177.276 10.7839 178.174 10.6016 179.125 10.6016H181.117C182.068 10.6016 182.96 10.7839 183.793 11.1484C184.626 11.5 185.355 11.9883 185.98 12.6133C186.605 13.2383 187.094 13.9674 187.445 14.8008C187.81 15.6341 187.992 16.526 187.992 17.4766V32.5156ZM185.473 17.4766C185.473 16.8516 185.355 16.2721 185.121 15.7383C184.887 15.1914 184.568 14.7161 184.164 14.3125C183.76 13.9089 183.285 13.5898 182.738 13.3555C182.204 13.1211 181.625 13.0039 181 13.0039H179.242C178.617 13.0039 178.031 13.1211 177.484 13.3555C176.951 13.5898 176.475 13.9089 176.059 14.3125C175.655 14.7161 175.336 15.1914 175.102 15.7383C174.867 16.2721 174.75 16.8516 174.75 17.4766V32.5156C174.75 33.1406 174.867 33.7266 175.102 34.2734C175.336 34.8073 175.655 35.2826 176.059 35.6992C176.475 36.1029 176.951 36.4219 177.484 36.6562C178.031 36.8906 178.617 37.0078 179.242 37.0078H181C181.625 37.0078 182.204 36.8906 182.738 36.6562C183.285 36.4219 183.76 36.1029 184.164 35.6992C184.568 35.2826 184.887 34.8073 185.121 34.2734C185.355 33.7266 185.473 33.1406 185.473 32.5156V17.4766ZM209.359 32.5156C209.359 33.4661 209.177 34.3581 208.812 35.1914C208.461 36.0247 207.973 36.7539 207.348 37.3789C206.723 38.0039 205.993 38.4987 205.16 38.8633C204.327 39.2148 203.435 39.3906 202.484 39.3906H200.492C199.542 39.3906 198.643 39.2148 197.797 38.8633C196.964 38.4987 196.234 38.0039 195.609 37.3789C194.984 36.7539 194.49 36.0247 194.125 35.1914C193.773 34.3581 193.598 33.4661 193.598 32.5156V10.9922H196.117V32.5156C196.117 33.1406 196.234 33.7266 196.469 34.2734C196.703 34.8073 197.022 35.2826 197.426 35.6992C197.842 36.1029 198.318 36.4219 198.852 36.6562C199.398 36.8906 199.984 37.0078 200.609 37.0078H202.367C202.992 37.0078 203.572 36.8906 204.105 36.6562C204.652 36.4219 205.128 36.1029 205.531 35.6992C205.935 35.2826 206.254 34.8073 206.488 34.2734C206.723 33.7266 206.84 33.1406 206.84 32.5156V10.9922H209.359V32.5156ZM215.375 39V10.9922H231.137V13.3945H217.895V23.8047H228.617V26.207H217.895V36.5977H231.137V39H215.375ZM244.77 39V10.9922H247.289V36.5977H258.012V39H244.77ZM272.523 32.4766H263.656L261.82 39H259.203L267.406 10.9922H268.734L276.977 39H274.379L272.523 32.4766ZM264.34 30.0742H271.859L268.168 17.1641L268.09 16.1289L268.012 17.1641L264.34 30.0742ZM464.906 39V35.9922H467.895V39H464.906ZM467.66 30.5234H465.141V29.7617C465.141 28.9023 465.245 28.1536 465.453 27.5156C465.661 26.8776 465.935 26.3177 466.273 25.8359C466.625 25.3542 467.016 24.9245 467.445 24.5469C467.888 24.1693 468.337 23.8112 468.793 23.4727C469.262 23.1211 469.711 22.7695 470.141 22.418C470.583 22.0664 470.974 21.6758 471.312 21.2461C471.664 20.8164 471.944 20.3281 472.152 19.7812C472.361 19.2344 472.465 18.5898 472.465 17.8477V17.4766C472.465 16.8516 472.348 16.2721 472.113 15.7383C471.879 15.1914 471.553 14.7161 471.137 14.3125C470.733 13.9089 470.258 13.5898 469.711 13.3555C469.177 13.1211 468.598 13.0039 467.973 13.0039H467.426C466.801 13.0039 466.215 13.1211 465.668 13.3555C465.134 13.5898 464.659 13.9089 464.242 14.3125C463.839 14.7161 463.52 15.1914 463.285 15.7383C463.051 16.2721 462.934 16.8516 462.934 17.4766V18.6094L460.414 18.1992V17.4766C460.414 16.526 460.59 15.6341 460.941 14.8008C461.306 13.9674 461.801 13.2383 462.426 12.6133C463.051 11.9883 463.78 11.5 464.613 11.1484C465.46 10.7839 466.358 10.6016 467.309 10.6016H468.109C469.06 10.6016 469.952 10.7839 470.785 11.1484C471.618 11.5 472.348 11.9883 472.973 12.6133C473.598 13.2383 474.086 13.9674 474.438 14.8008C474.802 15.6341 474.984 16.526 474.984 17.4766V17.8477C474.984 18.7461 474.88 19.5339 474.672 20.2109C474.464 20.888 474.184 21.487 473.832 22.0078C473.493 22.5286 473.103 22.9909 472.66 23.3945C472.23 23.7982 471.781 24.1758 471.312 24.5273C470.857 24.8789 470.408 25.224 469.965 25.5625C469.535 25.901 469.145 26.2721 468.793 26.6758C468.454 27.0794 468.181 27.5286 467.973 28.0234C467.764 28.5182 467.66 29.0977 467.66 29.7617V30.5234Z" fill="white"/>
</svg>
